<?xml version="1.0" encoding="utf-8"?>
<!-- Generator: Adobe Illustrator 27.3.1, SVG Export Plug-In . SVG Version: 6.00 Build 0)  -->
<svg version="1.1" xmlns="http://www.w3.org/2000/svg" xmlns:xlink="http://www.w3.org/1999/xlink" x="0px" y="0px"
	 viewBox="0 0 700 335.6" style="enable-background:new 0 0 700 335.6;" xml:space="preserve">
<style type="text/css">
	.st0{fill:#253544;}
	.st1{fill:#57898B;}
	.st2{fill:#C3B69A;}
</style>
<g id="Ebene_1">
</g>
<g id="Ebene_2">
	<g>
		<g>
			<path class="st0" d="M305.7,186c1.2,0.1,6.9,0.2,17.2,0.2c2.3,0,4-0.3,5-0.9c0.3-0.2,0.6-0.5,0.8-0.8c0.7-1.1,1.1-2.9,1.1-5.5
				c0-29.5-0.1-55.9-0.1-79.3c0-0.3,0.3-0.6,0.6-0.6c14.8,0,23.5,0,26.2,0.1c2.9,0,4.4-1.4,4.5-4.4c0.2-5.3,0.1-10.5-0.2-15.6
				c-0.1-1-0.7-1.9-1.6-2.3c-1.2-0.5-2.9-0.7-5-0.7c-6.8,0.1-14.7,0.1-23.6,0c-0.3,0-0.6-0.2-0.6-0.6c-0.2-1.7-0.2-4.6,0-8.7
				c0.4-9,5.1-13.8,14.1-14.4c3.5-0.2,8.5-0.3,14.8-0.3c2.4,0,3.7-1.2,3.8-3.5c0.2-5,0.2-9.8,0.1-14.5c0-2.3-1-3.6-3-3.7
				c-6-0.5-9.5-0.9-10.5-1c-19.3-2-40.6,2.7-46.2,23.5c-1.7,6.3-1.1,13.2-1.1,21.9c0,0.7-0.5,1.2-1.2,1.2c-1.8,0.1-6.2,0.1-13.5,0
				c-2.8,0-4.7,0.8-4.9,3.6c-0.1,2.6-0.2,7.3-0.1,14.1c0,2.5,0.7,5,3.6,5.1c2.6,0.1,7.5,0.1,14.8,0c0.7,0,1.2,0.5,1.2,1.2
				c0,32.4,0,58.9,0,79.7C301.9,183.1,302.5,185.6,305.7,186z"/>
			<path class="st0" d="M407.1,180.9V37c0-2.5-2.1-4.6-4.6-4.6h-18.3c-2.5,0-4.6,2.1-4.6,4.6v143.9c0,2.5,2.1,4.6,4.6,4.6h18.3
				C405,185.5,407.1,183.4,407.1,180.9z"/>
			<path class="st0" d="M534.1,134.4c2.2-32.1-19.2-59.2-51.9-61.5c-32.7-2.3-57.7,21.6-60,53.7c-2.2,32.1,19.2,59.2,51.9,61.5
				C506.8,190.3,531.8,166.5,534.1,134.4z M477.6,164.4c-19.2-0.4-28.2-17.5-27.9-34.6c0.4-17.1,10.2-33.8,29.4-33.3
				c19.2,0.4,28.2,17.5,27.9,34.6C506.6,148.2,496.7,164.9,477.6,164.4z"/>
			<path class="st0" d="M693,75.1c-5.1-0.1-10.1-0.1-15,0c-3.6,0.1-5.8,1.8-6.6,5.1c-7.2,27.7-13,50.9-17.2,69.8
				c-0.3,1.2-0.6,2.1-1,2.6c-0.2,0.3-0.8,0.3-0.9-0.1c-0.4-0.9-0.8-1.7-0.9-2.2c-1.1-4.5-6.9-26.6-17.2-66.3
				c-1.2-4.7-1.8-8.4-6.9-8.8c-1.5-0.1-4.5-0.2-9.1-0.2c-4.6,0-7.6,0.1-9.1,0.2c-5.1,0.4-5.7,4.1-6.9,8.8
				c-10.3,39.7-16,61.8-17.2,66.3c-0.1,0.5-0.4,1.3-0.9,2.2c-0.1,0.2-0.3,0.3-0.4,0.3c0,0,0,0-0.1,0c-0.2,0-0.3-0.1-0.4-0.2
				c-0.4-0.5-0.7-1.4-1-2.6c-4.3-18.8-10.1-42.1-17.3-69.7c-0.9-3.3-3.1-5-6.6-5.1c-4.9-0.1-9.9-0.1-15,0c-5.4,0.1-8.4,1.1-6.4,7.4
				c7,22.8,17.1,55.1,30.1,97.1c1.4,4.6,3.2,6,8.2,6c11.4,0,17.3,0,17.7,0c3.3,0,5.4-1.9,6.4-5.5c1-3.6,6.8-25,17.6-64.3
				c0.3-1.1,0.7-1.6,1.3-1.6c0.5,0,1,0.5,1.3,1.6c10.8,39.3,16.7,60.7,17.6,64.2c1,3.7,3.1,5.5,6.4,5.5c0.4,0,6.3,0,17.7,0
				c5,0,6.8-1.4,8.2-6c13-42,23-74.3,30-97.1C701.3,76.2,698.4,75.1,693,75.1z"/>
			<path class="st0" d="M364,302.2h-46.4c-0.5,0-1-0.4-1-1v-26.4c0-0.3,0.3-0.6,0.6-0.6h41.1c0.3,0,0.6-0.3,0.6-0.6v-11.4
				c0-0.3-0.3-0.6-0.6-0.6h-41.5c-0.1,0-0.2-0.1-0.2-0.2v-25.5c0-0.3,0.3-0.6,0.6-0.6h46.2c0.4,0,0.6-0.3,0.6-0.6v-11.8
				c0-0.4-0.3-0.7-0.6-0.7h-60.9c-0.3,0-0.5,0.2-0.5,0.6l-0.1,67.7l0,0l0.1,23.5c0,0.7,0.6,1.2,1.2,1.2l55.6,0c0,0,0,0,0,0l0.5,0
				l0,0c0,0,0,0,0,0l4.6,0c0.2,0,0.4-0.2,0.4-0.4v-12C364.5,302.4,364.3,302.2,364,302.2z"/>
			<path class="st0" d="M438.3,278.2c-0.1-0.3,0-0.6,0.3-0.7c10.4-2.5,16.6-9.3,18.6-20.2c3-16-3.8-29.8-20.1-34.2
				c-2.5-0.7-6.3-1-11.5-1c-10,0-22.8,0-38.4,0c-0.3,0-0.6,0.3-0.6,0.6v91.9c0,0.3,0.2,0.5,0.5,0.5h14.2c0.2,0,0.4-0.2,0.4-0.4
				v-34.3c0-0.1,0.1-0.2,0.2-0.2h19.1c0.6,0,1.1,0.3,1.4,0.8l17.4,32.8c0.4,0.8,1.3,1.4,2.3,1.4h16c0.3,0,0.4-0.3,0.3-0.5
				L438.3,278.2z M442.6,252.6c0.1,7.9-6.8,14.4-15.3,14.4l-25,0.2c-0.3,0-0.5-0.2-0.5-0.5l-0.2-30.8c0-0.3,0.2-0.5,0.5-0.5l25-0.2
				c8.5-0.1,15.5,6.3,15.5,14.2L442.6,252.6z"/>
			<path class="st0" d="M529,223.8c-3.3-1.2-7.9-1.7-13.8-1.7c-12.4,0.1-24,0.1-34.8,0c-0.4,0-0.6,0.3-0.6,0.7v91.8
				c0,0.3,0.3,0.6,0.6,0.6H493c0.4,0,0.7-0.3,0.7-0.7v-32.2c0-0.2,0.1-0.3,0.3-0.3c4.4,0.1,10.9,0.1,19.5,0c5.3,0,9.7-0.5,13-1.3
				c10.6-2.6,17.3-9.2,20.1-19.8C550.5,245.5,544.7,229.3,529,223.8z M532.6,250.5v3.2c0,8.4-7.2,15.3-16.2,15.3h-22.5
				c-0.2,0-0.3-0.1-0.3-0.3v-33.2c0-0.2,0.1-0.3,0.3-0.3h22.5C525.3,235.3,532.6,242.1,532.6,250.5z"/>
		</g>
		<path class="st1" d="M210.1,52.4c0-29-23.5-52.4-52.4-52.4c-8.2,0-16,1.9-23,5.3c-0.4,0.2-0.7,0.4-1.1,0.6
			c-0.4,0.2-0.8,0.4-1.2,0.6c-0.6,0.3-1.2,0.7-1.8,1c-0.1,0.1-0.2,0.1-0.4,0.2c-5,3.1-9.7,7.1-14.1,12.1c-6.1,7-9.7,16.7-11.1,25.6
			c-0.4,2.5-0.7,7-1,13.6c-0.2,5.4-0.8,10-1.7,13.8c-5.6,23.5-24.8,43.7-47.5,49.6c-2.2-0.4-4.5-0.5-7-0.5C21.5,122,0,143.4,0,169.9
			c0,26.5,21.5,47.9,47.9,47.9c4.9,0,9.3-0.7,13.3-2.1c7.2,1.6,14.3,4.1,21.1,7.5c13.4,6.6,22.9,16,28.5,28.2
			c1.9,4.1,3.5,7.9,4.9,11.2c0.1,0.2,0.2,0.5,0.2,0.8c0.3,2.4,1.2,4.5,2.6,6.3c5-11.9,13.3-20.9,25.1-26.9l7.2-3.6
			c0.3-0.1,0.2-0.5-0.1-0.6c-3.5-1-6.7-2.6-9.8-4.6c0-0.4-17.5-11.5-24.5-17.9c-1.5-1.4-7.9-6-9.4-7.8c-5.5-5.9-9.8-12.4-13-19.6
			c-3.4-7.8-4.9-15.4-4.5-22.9c0.5-8.7,2.6-17,6.5-24.8c9.2-18.3,27.4-30.3,47.2-34.3c3.7-0.7,8.8-1.1,15.3-1.1c3,0,7.3-0.7,13-2.1
			c4.9-1.2,8.9-2.8,12.2-4.9c7.8-4.8,13.8-10.6,18-17.4c2.9-4.7,4.9-9.6,6.2-14.8C209.4,61.9,210.1,57.3,210.1,52.4z"/>
		
			<ellipse transform="matrix(0.9732 -0.2298 0.2298 0.9732 -61.02 44.8757)" class="st2" cx="162.2" cy="284.5" rx="51.1" ry="51.1"/>
	</g>
</g>
</svg>
