<svg xmlns="http://www.w3.org/2000/svg" viewBox="-8 -8 228 350" role="img" aria-label="Flow Favicon">
  <path fill="#57898B" d="M210.1,52.4c0-29-23.5-52.4-52.4-52.4c-8.2,0-16,1.9-23,5.3c-0.4,0.2-0.7,0.4-1.1,0.6
  c-0.4,0.2-0.8,0.4-1.2,0.6c-0.6,0.3-1.2,0.7-1.8,1c-0.1,0.1-0.2,0.1-0.4,0.2c-5,3.1-9.7,7.1-14.1,12.1
  c-6.1,7-9.7,16.7-11.1,25.6c-0.4,2.5-0.7,7-1,13.6c-0.2,5.4-0.8,10-1.7,13.8c-5.6,23.5-24.8,43.7-47.5,49.6
  c-2.2-0.4-4.5-0.5-7-0.5C21.5,122,0,143.4,0,169.9c0,26.5,21.5,47.9,47.9,47.9c4.9,0,9.3-0.7,13.3-2.1
  c7.2,1.6,14.3,4.1,21.1,7.5c13.4,6.6,22.9,16,28.5,28.2c1.9,4.1,3.5,7.9,4.9,11.2c0.1,0.2,0.2,0.5,0.2,0.8
  c0.3,2.4,1.2,4.5,2.6,6.3c5-11.9,13.3-20.9,25.1-26.9l7.2-3.6c0.3-0.1,0.2-0.5-0.1-0.6c-3.5-1-6.7-2.6-9.8-4.6
  c0-0.4-17.5-11.5-24.5-17.9c-1.5-1.4-7.9-6-9.4-7.8c-5.5-5.9-9.8-12.4-13-19.6c-3.4-7.8-4.9-15.4-4.5-22.9
  c0.5-8.7,2.6-17,6.5-24.8c9.2-18.3,27.4-30.3,47.2-34.3c3.7-0.7,8.8-1.1,15.3-1.1c3,0,7.3-0.7,13-2.1
  c4.9-1.2,8.9-2.8,12.2-4.9c7.8-4.8,13.8-10.6,18-17.4c2.9-4.7,4.9-9.6,6.2-14.8C209.4,61.9,210.1,57.3,210.1,52.4z"/>
  <circle fill="#C3B69A" cx="162.2" cy="284.5" r="51.1"/>
</svg>
