<svg xmlns="http://www.w3.org/2000/svg" viewBox="0 0 256 256" role="img" aria-label="Flow Favicon">
  <g transform="translate(24 68.55) scale(0.88858)">
    <path fill="#4d4d53" d="m35.27,95.71c-.05-.08-.1-.16-.14-.24C24.33,77.31,12.64,57.8.06,36.96c-.16-.25.02-.57.31-.57,15.8-.23,28.89-.21,39.29.07,4.5.12,8.57,1.75,12.21,4.91.45.39.84.84,1.16,1.34,6.96,10.74,13.4,21.27,19.3,31.58.05.08.1.16.14.24,10.79,18.16,22.48,37.66,35.07,58.51.15.25-.02.57-.31.57-15.8.23-28.9.2-39.29-.07-4.51-.12-8.58-1.76-12.21-4.91-.45-.39-.84-.84-1.17-1.34-6.95-10.74-13.39-21.27-19.29-31.58Z"/>
    <path fill="#4d4d53" d="m66.64,37.06c-.17-.28.03-.65.36-.65,5.46-.03,16.71-.09,33.76-.16,6.08-.02,10.23.49,12.45,1.54,3.91,1.85,6.83,4.59,8.74,8.2.84,1.57,1.51,2.78,2.02,3.63,14.87,24.71,26.65,44.59,35.32,59.62,3.98,6.91,2.93,16.03-4,20.78-6.71,4.59-12.84,3.9-21.59,3.5-3.37-.15-6.7-1.4-9.97-3.74-1.71-1.23-3.87-4.04-6.47-8.43-13.17-22.25-30.05-50.34-50.62-84.29Z"/>
    <path fill="#f48235" d="m172.18,104.41c-.16.28-.56.28-.73,0l-26.4-43.8c-.2-.34-.2-.76,0-1.1,11.05-18.35,20.92-34.95,29.59-49.82,1.95-3.33,3.71-5.48,5.28-6.46,3.69-2.3,6.62-3.18,11.5-3.19,18.23-.05,32.31-.05,42.25.01.32,0,.51.35.35.62l-61.84,103.74Z"/>
  </g>
</svg>
