<svg width="1200" height="800" viewBox="0 0 1200 800" fill="none" xmlns="http://www.w3.org/2000/svg" role="img" aria-labelledby="title desc">
  <title id="title">Dashboard Platzhalter</title>
  <desc id="desc">Neutraler Platzhalter einer Prozesssoftware mit Karten und Diagrammen.</desc>
  <rect width="1200" height="800" rx="28" fill="#F2F7FA"/>
  <rect x="46" y="44" width="1108" height="88" rx="16" fill="#DCEAF2"/>
  <rect x="70" y="70" width="180" height="36" rx="10" fill="#0F4B73"/>
  <rect x="274" y="70" width="120" height="36" rx="10" fill="#BDD4E2"/>
  <rect x="414" y="70" width="120" height="36" rx="10" fill="#BDD4E2"/>
  <rect x="554" y="70" width="120" height="36" rx="10" fill="#BDD4E2"/>
  <rect x="46" y="164" width="300" height="590" rx="18" fill="#E6F0F5"/>
  <rect x="372" y="164" width="782" height="278" rx="18" fill="#FFFFFF"/>
  <rect x="372" y="466" width="378" height="288" rx="18" fill="#FFFFFF"/>
  <rect x="776" y="466" width="378" height="288" rx="18" fill="#FFFFFF"/>
  <rect x="394" y="188" width="210" height="24" rx="8" fill="#D9E6EE"/>
  <rect x="394" y="224" width="310" height="18" rx="6" fill="#EAF2F7"/>
  <rect x="394" y="252" width="250" height="18" rx="6" fill="#EAF2F7"/>
  <rect x="394" y="280" width="290" height="18" rx="6" fill="#EAF2F7"/>
  <path d="M800 354L862 300L928 332L1000 248L1066 282" stroke="#1A7D8F" stroke-width="14" stroke-linecap="round" stroke-linejoin="round"/>
  <circle cx="800" cy="354" r="10" fill="#1A7D8F"/>
  <circle cx="862" cy="300" r="10" fill="#1A7D8F"/>
  <circle cx="928" cy="332" r="10" fill="#1A7D8F"/>
  <circle cx="1000" cy="248" r="10" fill="#1A7D8F"/>
  <circle cx="1066" cy="282" r="10" fill="#1A7D8F"/>
  <rect x="394" y="490" width="140" height="20" rx="7" fill="#D9E6EE"/>
  <rect x="394" y="522" width="334" height="12" rx="6" fill="#EAF2F7"/>
  <rect x="394" y="544" width="290" height="12" rx="6" fill="#EAF2F7"/>
  <rect x="394" y="566" width="315" height="12" rx="6" fill="#EAF2F7"/>
  <rect x="394" y="588" width="264" height="12" rx="6" fill="#EAF2F7"/>
  <rect x="798" y="490" width="140" height="20" rx="7" fill="#D9E6EE"/>
  <rect x="798" y="522" width="334" height="12" rx="6" fill="#EAF2F7"/>
  <rect x="798" y="544" width="290" height="12" rx="6" fill="#EAF2F7"/>
  <rect x="798" y="566" width="315" height="12" rx="6" fill="#EAF2F7"/>
  <rect x="798" y="588" width="264" height="12" rx="6" fill="#EAF2F7"/>
</svg>
