<?xml version="1.0" encoding="utf-8"?>
<!-- Generator: Adobe Illustrator 27.3.1, SVG Export Plug-In . SVG Version: 6.00 Build 0)  -->
<svg version="1.1" id="Ebene_1" xmlns="http://www.w3.org/2000/svg" xmlns:xlink="http://www.w3.org/1999/xlink" x="0px" y="0px"
	 viewBox="0 0 845 133.8" style="enable-background:new 0 0 845 133.8;" xml:space="preserve">
<style type="text/css">
	.st0{fill:#4D4D53;}
	.st1{fill:#F48235;}
</style>
<g>
	<g>
		<path class="st0" d="M35.3,95.7c0-0.1-0.1-0.2-0.1-0.2C24.3,77.3,12.6,57.8,0.1,37c-0.2-0.2,0-0.6,0.3-0.6
			c15.8-0.2,28.9-0.2,39.3,0.1c4.5,0.1,8.6,1.8,12.2,4.9c0.4,0.4,0.8,0.8,1.2,1.3C60,53.4,66.4,64,72.3,74.3
			c0.1,0.1,0.1,0.2,0.1,0.2c10.8,18.2,22.5,37.7,35.1,58.5c0.2,0.2,0,0.6-0.3,0.6c-15.8,0.2-28.9,0.2-39.3-0.1
			c-4.5-0.1-8.6-1.8-12.2-4.9c-0.4-0.4-0.8-0.8-1.2-1.3C47.6,116.5,41.2,106,35.3,95.7z"/>
		<path class="st0" d="M66.6,37.1c-0.2-0.3,0-0.6,0.4-0.6c5.5,0,16.7-0.1,33.8-0.2c6.1,0,10.2,0.5,12.5,1.5c3.9,1.9,6.8,4.6,8.7,8.2
			c0.8,1.6,1.5,2.8,2,3.6c14.9,24.7,26.6,44.6,35.3,59.6c4,6.9,2.9,16-4,20.8c-6.7,4.6-12.8,3.9-21.6,3.5c-3.4-0.2-6.7-1.4-10-3.7
			c-1.7-1.2-3.9-4-6.5-8.4C104.1,99.1,87.2,71,66.6,37.1z"/>
		<path class="st0" d="M252.4,108.7l1.4-11.6c0-0.2,0.3-0.4,0.5-0.3c8.7,2.8,17.8,4.1,27.1,3.9c4-0.1,11.4-1.1,13-5.5
			c1-2.8,1-5.5-0.1-8.1c-1.2-3.1-8.4-4.9-11.8-5.5c-10.4-2-26-4.2-29.2-15.8c-1.7-6.3-1.1-15.2,3.7-20.1c5.6-5.7,13.4-7.6,21.6-8.1
			c9.8-0.7,19.5,0.3,28.9,3c0.3,0.1,0.5,0.3,0.4,0.6l-0.7,11.7c0,0.4-0.4,0.6-0.7,0.5c-6.3-1.7-13.3-2.8-20.9-3.1
			c-3.5-0.2-7.1,0.3-11,1.4c-3.6,1-5.5,3.2-5.6,6.5c-0.2,4.4,2.5,6.9,6.1,7.9c4.5,1.3,9.1,2.3,14.1,3c1.8,0.2,5.3,1.2,10.4,2.9
			c5.1,1.6,9.9,5.8,11.4,11.4c1.4,5.3,1.5,10,0.3,14.1c-4.2,13.9-20,16.6-33,16.3c-8.4-0.2-16.8-1.5-25.2-3.9
			C252.7,109.7,252.4,109.2,252.4,108.7z"/>
		<path class="st0" d="M533.3,44.9l14.7-1.3c0.2,0,0.5,0.2,0.5,0.4V58c0,0.3,0.3,0.6,0.6,0.6h14.5c0.5,0,0.8,0.4,0.8,0.8v10.8
			c0,0.4-0.3,0.7-0.7,0.7h-14.6c-0.3,0-0.6,0.3-0.6,0.6c-0.1,8,0,16,0.2,23.9c0.2,8.1,10.5,5.8,15.4,5.1c0.3,0,0.6,0.2,0.6,0.6v10.5
			c0,0.2-0.1,0.4-0.3,0.4c-8.9,2-25.2,3.6-29.8-7.2c-1.1-2.5-1.6-5-1.6-7.5c0-7.1-0.1-15.7-0.2-25.8c0-0.3-0.3-0.6-0.6-0.6h-8.1
			c-0.5,0-0.8-0.4-0.8-0.8V59.3c0-0.3,0.2-0.6,0.5-0.6h8.3c0.3,0,0.6-0.3,0.6-0.6V45.7C532.6,45.2,532.9,44.9,533.3,44.9z"/>
		<path class="st0" d="M336.3,64.3c8.7-7.5,21.8-9.1,31.6-2.8c0.1,0.1,0.2,0.2,0.3,0.3l2.6,3.4c0.1,0.2,0.4,0.2,0.6,0
			c5.8-5.4,12.8-7.9,21-7.5c12.6,0.5,18.2,8.5,18.3,20.3c0.1,11.8,0,23.2-0.2,34.4c0,0.2-0.2,0.4-0.4,0.4h-14.6
			c-0.2,0-0.4-0.2-0.4-0.4c0-17.6,0-29.1-0.2-34.8c-0.1-2-0.8-3.8-2.2-5.4c-4-4.6-18.5-1.1-18.7,5.6c-0.2,3.5-0.2,14.9-0.1,34.4
			c0,0.3-0.2,0.5-0.5,0.5h-14.6c-0.3,0-0.5-0.2-0.5-0.5c-0.1-7.2-0.1-18.7-0.1-34.6c0-3.2-1.2-5.5-3.8-6.8
			c-4.7-2.4-11.8,0.3-15.6,3.7c-0.9,0.8-1.4,1.9-1.4,3.1v34.6c0,0.3-0.3,0.6-0.6,0.6h-15c-0.2,0-0.5-0.2-0.5-0.5V58.8
			c0-0.1,0.1-0.2,0.2-0.2h12.6c0.4,0,0.6,0.3,0.7,0.6l0.4,4.7C335.3,64.4,335.9,64.6,336.3,64.3z"/>
		<path class="st0" d="M456.9,107.6c-7.8,5.9-16.5,7.4-26.4,4.5c-8-2.3-12.2-8.9-11.6-17.1c0.8-11.7,12.2-15.3,22.5-15.5
			c8.1-0.1,12.6-0.1,13.7-0.1c0.4,0,0.7-0.2,0.8-0.6c1.6-7.8-5.4-9.4-11.2-9.3c-6.2,0.1-12.6,0.8-19.1,2c-0.4,0.1-0.7-0.2-0.8-0.6
			l-0.8-9.2c0-0.4,0.2-0.8,0.6-0.9c8.7-2.2,17-3.3,25-3.3c4.7,0,12.8,2.3,16.2,5.6c3.8,3.8,5.8,8.4,6,13.7c0,1,0,12.7,0,35.2
			c0,0.4-0.3,0.7-0.7,0.7h-11.6c-0.3,0-0.7-0.2-0.8-0.5c-0.5-1-0.9-2.4-1-4.4C457.6,107.6,457.2,107.4,456.9,107.6z M456.1,89.8
			c0-0.2-0.2-0.4-0.4-0.4c-4.6-0.4-15.5-1.1-18.7,1.8c-5.9,5.1-1.2,11.4,5.4,11.4c4.4,0,11.3-1.8,13.6-6c0.1-0.2,0.1-0.3,0.1-0.5
			V89.8z"/>
		<path class="st0" d="M518.7,71.7c-7.2-0.3-19.7,1.7-19.6,11.3c0.1,9,0.1,18.6,0.1,29c0,0.4-0.3,0.7-0.7,0.7h-14.7
			c-0.3,0-0.5-0.2-0.5-0.5v-53c0-0.3,0.2-0.6,0.6-0.6h12.4c0.4,0,0.8,0.3,0.8,0.7l0.5,6c0,0.4,0.5,0.6,0.8,0.3
			c5.4-5.4,12.2-8,20.4-7.8c0.3,0,0.5,0.3,0.5,0.6V71C519.4,71.4,519.1,71.8,518.7,71.7z"/>
	</g>
	<g>
		<path class="st1" d="M172.2,104.4c-0.2,0.3-0.6,0.3-0.7,0L145,60.6c-0.2-0.3-0.2-0.8,0-1.1c11.1-18.3,20.9-35,29.6-49.8
			c2-3.3,3.7-5.5,5.3-6.5c3.7-2.3,6.6-3.2,11.5-3.2c18.2,0,32.3,0,42.2,0c0.3,0,0.5,0.4,0.4,0.6L172.2,104.4z"/>
		<path class="st1" d="M819.1,84.4l25.8,27.9c0.2,0.2,0,0.5-0.2,0.5h-18.2c-0.1,0-0.2,0-0.2-0.1l-22.6-24.5
			c-0.2-0.2-0.5-0.1-0.5,0.2v24c0,0.2-0.1,0.3-0.3,0.3h-15.2c-0.2,0-0.3-0.1-0.3-0.3V38.1c0-0.2,0.1-0.3,0.3-0.3l15.2-1.3
			c0.2,0,0.3,0.1,0.3,0.3v43.6c0,0.3,0.3,0.4,0.5,0.2l21.8-21.8c0.1-0.1,0.1-0.1,0.2-0.1h18.1c0.3,0,0.4,0.3,0.2,0.5L819.1,84
			C819,84.1,819,84.3,819.1,84.4z"/>
		<path class="st1" d="M623.5,56.7C623.5,56.6,623.4,56.6,623.5,56.7c-0.4,2.5-0.8,4.4-1.1,5.7c-0.1,0.5-4.8,17-13.8,49.5
			c-0.1,0.6-0.6,0.9-1.2,0.9h-16.2c-0.3,0-0.7-0.2-0.7-0.6l-21.2-73.1c-0.1-0.3,0.1-0.5,0.4-0.5h15.7c0.4,0,0.7,0.2,0.8,0.6
			l13.2,52.7c0.1,0.3,0.5,0.3,0.6,0l14.4-52.7c0.1-0.3,0.4-0.6,0.7-0.6h18.1c0.4,0,0.7,0.2,0.7,0.6l14.2,53.2c0.1,0.4,0.7,0.4,0.8,0
			l13.2-53.2c0.1-0.4,0.5-0.7,0.9-0.7h15.4c0.2,0,0.4,0.2,0.3,0.4l-21.4,73c-0.1,0.5-0.6,0.8-1.1,0.8H640c-0.1,0-0.2-0.1-0.3-0.2
			L623.5,56.7z"/>
		<path class="st1" d="M733.8,90.1c0,0.2-0.2,0.4-0.4,0.4h-38.8c-0.3,0-0.5,0.2-0.5,0.5c0.4,4.7,2.7,7.7,7,9.2
			c3.8,1.3,8,1.8,12.5,1.5c6.3-0.5,11.2-1.2,14.8-2.2c0.4-0.1,0.8,0.2,0.8,0.6l0.9,10.1c0,0.2-0.1,0.4-0.3,0.5
			c-7.8,2.3-15.6,3.3-23.2,3.2c-7.7-0.2-18.2-3.1-23.1-9.4c-3.2-4.1-5-8.9-5.5-14.5c-1.9-21.2,10.6-33.1,31.4-32
			C729,58.8,734.9,72.2,733.8,90.1z M694.9,80.3l23.3-0.1c0.2,0,0.4-0.2,0.4-0.4v-0.1c0-5.8-4.9-10.6-10.8-10.5l-2.7,0
			c-5.9,0-10.7,4.8-10.7,10.6v0.1C694.4,80.1,694.6,80.3,694.9,80.3z"/>
		<path class="st1" d="M779.2,71.1c0,0.4-0.3,0.7-0.7,0.7c-7.2-0.4-19.7,1.6-19.7,11.3c0,9,0,18.7,0,29.1c0,0.4-0.3,0.7-0.7,0.7
			l-14.7-0.1c-0.3,0-0.5-0.2-0.5-0.5l0.2-53.2c0-0.3,0.2-0.6,0.6-0.6l12.4,0c0.4,0,0.8,0.3,0.8,0.7l0.5,6c0,0.4,0.6,0.6,0.9,0.3
			c5.5-5.4,12.3-8,20.5-7.7c0.3,0,0.5,0.3,0.5,0.6L779.2,71.1z"/>
	</g>
</g>
</svg>
